<svg width="18" height="19" viewBox="0 0 18 19" fill="none" xmlns="http://www.w3.org/2000/svg">
<path d="M12.8127 4.73421C12.8127 4.20778 13.2395 3.78103 13.7659 3.78103C14.2923 3.78103 14.7191 4.20778 14.7191 4.73421C14.7191 5.26063 14.2923 5.68739 13.7659 5.68739C13.2395 5.68739 12.8127 5.26063 12.8127 4.73421Z" fill="#FDC900"/>
<path fill-rule="evenodd" clip-rule="evenodd" d="M8.99999 4.9725C6.49946 4.9725 4.47239 6.99958 4.47239 9.5001C4.47239 12.0006 6.49946 14.0277 8.99999 14.0277C11.5005 14.0277 13.5276 12.0006 13.5276 9.5001C13.5276 6.99958 11.5005 4.9725 8.99999 4.9725ZM5.90216 9.5001C5.90216 7.78922 7.2891 6.40227 8.99999 6.40227C10.7109 6.40227 12.0978 7.78922 12.0978 9.5001C12.0978 11.211 10.7109 12.5979 8.99999 12.5979C7.2891 12.5979 5.90216 11.211 5.90216 9.5001Z" fill="#FDC900"/>
<path fill-rule="evenodd" clip-rule="evenodd" d="M14.012 0.762327C10.7078 0.393026 7.29222 0.393026 3.98795 0.762327C2.0701 0.976675 0.521824 2.48747 0.296347 4.4153C-0.0987822 7.79365 -0.0987822 11.2065 0.296347 14.5849C0.521824 16.5127 2.07011 18.0235 3.98795 18.2379C7.29222 18.6072 10.7078 18.6072 14.012 18.2379C15.9299 18.0235 17.4782 16.5127 17.7037 14.5849C18.0988 11.2065 18.0988 7.79365 17.7037 4.4153C17.4782 2.48747 15.9299 0.976675 14.012 0.762327ZM4.14676 2.18325C7.34548 1.82574 10.6545 1.82574 13.8532 2.18325C15.1211 2.32495 16.1367 3.32542 16.2836 4.5814C16.6658 7.8494 16.6658 11.1508 16.2836 14.4188C16.1367 15.6748 15.1211 16.6753 13.8532 16.817C10.6545 17.1745 7.34549 17.1745 4.14676 16.817C2.87893 16.6753 1.86333 15.6748 1.71643 14.4188C1.33421 11.1508 1.33421 7.8494 1.71643 4.5814C1.86333 3.32542 2.87893 2.32495 4.14676 2.18325Z" fill="#FDC900"/>
</svg>
