<svg width="18" height="19" viewBox="0 0 18 19" fill="none" xmlns="http://www.w3.org/2000/svg">
<path d="M6.14751 5.20767C6.31287 5.2121 6.49619 5.22104 6.67061 5.60821C6.78628 5.86596 6.98112 6.34045 7.13984 6.72698C7.26334 7.02775 7.36497 7.27526 7.39041 7.32591C7.44852 7.4416 7.48429 7.57509 7.40829 7.73081C7.39933 7.74918 7.39087 7.76675 7.38272 7.78366C7.32175 7.91019 7.27836 8.00023 7.17583 8.11798C7.13367 8.16637 7.08976 8.21944 7.04601 8.27231C6.96906 8.3653 6.8926 8.45768 6.82707 8.52296C6.71084 8.63857 6.59008 8.76327 6.7242 8.99464C6.85839 9.22601 7.32784 9.98698 8.02084 10.6011C8.76587 11.2644 9.41372 11.5439 9.7412 11.6852C9.80479 11.7126 9.85629 11.7349 9.89409 11.7537C10.1266 11.8693 10.2652 11.8515 10.3993 11.6958C10.5335 11.54 10.9805 11.0194 11.1371 10.788C11.2891 10.5566 11.4455 10.5922 11.6602 10.6723C11.8747 10.7524 13.0193 11.3131 13.2518 11.4288C13.2977 11.4516 13.3407 11.4723 13.3805 11.4914C13.5423 11.5689 13.6522 11.6217 13.6989 11.7003C13.757 11.7981 13.757 12.261 13.5647 12.8038C13.3681 13.3467 12.4202 13.8674 11.991 13.9074C11.9503 13.9113 11.9099 13.9162 11.8683 13.9212C11.4749 13.9688 10.9756 14.0292 9.19664 13.3289C7.00458 12.4669 5.55757 10.3282 5.26502 9.89579C5.24192 9.86165 5.22602 9.83815 5.21752 9.82675L5.21257 9.82012C5.07947 9.64202 4.26519 8.55246 4.26519 7.4283C4.26519 6.35276 4.79502 5.7928 5.03668 5.53739C5.052 5.5212 5.06616 5.50624 5.07895 5.49245C5.29352 5.26108 5.54394 5.20324 5.7004 5.20324C5.85693 5.20324 6.01339 5.20324 6.14751 5.20767Z" fill="#FDC900"/>
<path fill-rule="evenodd" clip-rule="evenodd" d="M0.0904468 18.0069C0.0165006 18.2753 0.260968 18.5231 0.530344 18.4527L4.69446 17.3651C6.00891 18.077 7.48879 18.4553 8.99555 18.4553H9C13.9582 18.4553 18 14.4369 18 9.49747C18 7.10338 17.0655 4.85165 15.3666 3.16061C13.6677 1.46965 11.4098 0.535156 8.99992 0.535156C4.04176 0.535156 5.7329e-07 4.5535 5.7329e-07 9.49304C-0.00056287 11.0644 0.414207 12.6083 1.20267 13.9697L0.0904468 18.0069ZM2.50968 14.3298C2.60622 13.9793 2.558 13.6048 2.37582 13.2902C1.70687 12.1352 1.35522 10.8254 1.3557 9.49304C1.3557 5.30865 4.78406 1.89086 8.99992 1.89086C11.0515 1.89086 12.9654 2.68347 14.4102 4.12148C15.8533 5.5579 16.6443 7.46378 16.6443 9.49747C16.6443 13.6818 13.216 17.0996 9 17.0996H8.99555C7.7153 17.0996 6.45722 16.7781 5.34015 16.173C5.03781 16.0092 4.68453 15.9665 4.35185 16.0534L1.85519 16.7055L2.50968 14.3298Z" fill="#FDC900"/>
</svg>
