<svg width="19" height="17" viewBox="0 0 19 17" fill="none" xmlns="http://www.w3.org/2000/svg">
<path fill-rule="evenodd" clip-rule="evenodd" d="M8.02047 5.16052C7.80809 5.0331 7.54359 5.02976 7.32807 5.15178C7.11255 5.27381 6.97933 5.50233 6.97933 5.75V11.2496C6.97933 11.4973 7.11255 11.7258 7.32807 11.8478C7.54359 11.9698 7.80809 11.9665 8.02047 11.8391L12.6035 9.08928C12.8105 8.96504 12.9372 8.74127 12.9372 8.4998C12.9372 8.25832 12.8105 8.03455 12.6035 7.91031L8.02047 5.16052ZM10.9136 8.4998L8.35423 10.0354V6.96417L10.9136 8.4998Z" fill="#FDC900"/>
<path fill-rule="evenodd" clip-rule="evenodd" d="M14.1111 0.754807C11.0417 0.514674 7.95829 0.514674 4.88892 0.754807L2.8351 0.915488C1.58617 1.0132 0.564451 1.94923 0.357999 3.18485C-0.119333 6.04168 -0.119333 10.9579 0.357999 13.8147C0.564451 15.0504 1.58617 15.9864 2.8351 16.0841L4.88892 16.2448C7.95828 16.4849 11.0417 16.4849 14.1111 16.2448L16.1649 16.0841C17.4138 15.9864 18.4356 15.0504 18.642 13.8147C19.1193 10.9579 19.1193 6.04168 18.642 3.18485C18.4356 1.94923 17.4138 1.0132 16.1649 0.915488L14.1111 0.754807ZM4.99616 2.12552C7.99414 1.89097 11.0059 1.89097 14.0038 2.12552L16.0577 2.2862C16.6769 2.33465 17.1835 2.79877 17.2859 3.41143C17.7382 6.11825 17.7382 10.8813 17.2859 13.5882C17.1835 14.2008 16.6769 14.6649 16.0577 14.7134L14.0038 14.8741C11.0059 15.1086 7.99414 15.1086 4.99616 14.8741L2.94233 14.7134C2.32307 14.6649 1.81646 14.2008 1.7141 13.5882C1.26183 10.8813 1.26183 6.11825 1.7141 3.41143C1.81646 2.79877 2.32307 2.33465 2.94233 2.2862L4.99616 2.12552Z" fill="#FDC900"/>
</svg>
