<svg width="20" height="20" viewBox="0 0 20 20" fill="none" xmlns="http://www.w3.org/2000/svg">
<path d="M1.91059 8.17471C4.00537 12.7398 7.73279 16.3693 12.367 18.3369L13.1098 18.6681C14.8093 19.4258 16.8072 18.8502 17.8438 17.3042L18.8146 15.8564C19.1302 15.3857 19.0341 14.7517 18.5932 14.3958L15.301 11.7383C14.8174 11.3479 14.1064 11.4389 13.7365 11.9383L12.718 13.3134C10.1047 12.0235 7.98293 9.90056 6.69381 7.28567L8.06809 6.26662C8.56725 5.89648 8.65812 5.185 8.26801 4.70116L5.61197 1.40692C5.25634 0.965841 4.62289 0.869629 4.15247 1.18524L2.69556 2.1627C1.14082 3.2058 0.568727 5.22137 1.34343 6.92643L1.90974 8.17285L1.91059 8.17471Z" stroke="#FDC900" stroke-width="1.25" stroke-linejoin="round"/>
</svg>
