<svg width="18" height="22" viewBox="0 0 18 22" fill="none" xmlns="http://www.w3.org/2000/svg">
<path fill-rule="evenodd" clip-rule="evenodd" d="M3.97407 9.32446C3.97407 6.54871 6.22425 4.29853 9 4.29853C11.7757 4.29853 14.0259 6.54871 14.0259 9.32446C14.0259 12.1002 11.7757 14.3504 9 14.3504C6.22425 14.3504 3.97407 12.1002 3.97407 9.32446ZM9 5.88566C7.10081 5.88566 5.5612 7.42526 5.5612 9.32446C5.5612 11.2237 7.10081 12.7633 9 12.7633C10.8992 12.7633 12.4388 11.2237 12.4388 9.32446C12.4388 7.42526 10.8992 5.88566 9 5.88566Z" fill="#FDC900"/>
<path fill-rule="evenodd" clip-rule="evenodd" d="M0.0320048 8.11491C0.406915 3.56658 4.20774 0.0661621 8.77149 0.0661621H9.22852C13.7923 0.0661621 17.5931 3.56658 17.968 8.11491C18.1694 10.5582 17.4147 12.9843 15.8628 14.8822L10.7913 21.0845C9.86549 22.2167 8.13451 22.2167 7.20868 21.0845L2.13718 14.8822C0.585325 12.9843 -0.169391 10.5582 0.0320048 8.11491ZM8.77149 1.6533C5.03374 1.6533 1.92083 4.52017 1.61378 8.24529C1.44616 10.2788 2.07429 12.2979 3.36586 13.8775L8.43736 20.0798C8.72815 20.4354 9.27185 20.4354 9.56265 20.0798L14.6341 13.8775C15.9257 12.2979 16.5538 10.2788 16.3862 8.24529C16.0792 4.52017 12.9663 1.6533 9.22852 1.6533H8.77149Z" fill="#FDC900"/>
</svg>
