<svg width="136" height="136" viewBox="0 0 136 136" fill="none" xmlns="http://www.w3.org/2000/svg">
<g clip-path="url(#clip0_1289_6164)">
<path d="M0.886186 57.0857C0.64987 58.6237 0.472632 60.221 0.295395 61.759L0 64.1844V72.1705L0.295395 74.4184C0.531712 76.3114 0.708949 78.0861 1.06342 79.8017C5.49435 102.636 18.3736 119.436 39.2876 129.67C46.4361 133.161 54.4118 135.231 62.9192 135.823C63.3328 135.823 63.7463 135.941 64.1599 136.059H72.0174L73.7897 135.823C75.1486 135.645 76.5074 135.527 77.8071 135.29C102.857 130.972 120.699 117.011 130.86 93.7034C135.173 83.7651 136.827 72.8804 135.646 61.4041C133.814 43.7164 126.193 28.7499 112.959 16.9778C101.97 7.27621 89.1503 1.65637 74.8532 0.354937C72.4309 0.118312 70.0678 0 67.7046 0C50.4535 0 35.0339 6.09308 21.9183 18.1018C10.6342 28.395 3.54474 41.5276 0.886186 57.0857ZM68.0591 5.91562C84.6603 5.91562 100.257 12.4819 112.014 24.3132C123.652 36.0853 130.033 51.6433 129.974 68.1479C129.797 102.281 102.03 130.025 68.0591 130.025H67.8818C51.2215 130.025 35.6247 123.459 23.927 111.628C12.2884 99.8556 5.90791 84.2975 6.02606 67.793C6.2033 33.6599 34.0295 5.91562 68.0591 5.91562Z" fill="white"/>
<path d="M92.1045 63.0012L63.9238 42.474C63.0376 41.8233 60.4382 39.9303 57.2479 41.5275C54.0576 43.1839 54.0576 46.3784 54.0576 47.4432C54.0576 52.4123 54.0576 57.4406 54.0576 62.4097V67.9112V73.6493C54.0576 78.6776 54.0576 83.7059 54.0576 88.675C54.0576 91.4553 55.121 93.4075 57.1888 94.4723C58.0159 94.8864 58.9021 95.123 59.7292 95.123C61.0289 95.123 62.3878 94.6498 63.7466 93.6441L92.1045 73.0578C94.5859 71.2831 95.0585 69.3309 95.0585 67.9703C95.0585 66.6098 94.5268 64.7168 92.1045 62.9421V63.0012Z" fill="white"/>
</g>
<defs>
<clipPath id="clip0_1289_6164">
<rect width="136" height="136" fill="white"/>
</clipPath>
</defs>
</svg>
