<svg width="23" height="16" viewBox="0 0 23 16" fill="none" xmlns="http://www.w3.org/2000/svg">
<path fill-rule="evenodd" clip-rule="evenodd" d="M2.40706 0.112793H20.5914C21.9134 0.112793 22.9926 1.14838 22.9926 2.41679V13.5831C22.9926 14.8516 21.9134 15.8869 20.5914 15.8869H2.40706C1.08513 15.8869 0.00585938 14.8516 0.00585938 13.5831V2.41679C0.00585938 1.78259 0.275822 1.20659 0.71081 0.789207L0.71196 0.79031C1.1481 0.372379 1.7484 0.112793 2.40706 0.112793ZM21.7271 1.9481L13.3321 8.71721C12.2784 9.56659 10.7198 9.56686 9.66615 8.71721L1.27115 1.9481C1.20588 2.0921 1.16966 2.25072 1.16966 2.41679V13.5831C1.16966 14.2347 1.7277 14.7702 2.40677 14.7702H20.5911C21.2705 14.7702 21.8285 14.2347 21.8285 13.5831V2.41679C21.8285 2.25072 21.7923 2.0921 21.7271 1.9481ZM2.20092 1.24603L10.4119 7.86672C11.0257 8.36162 11.9728 8.36162 12.5866 7.86672L20.7973 1.24631L2.20092 1.24603Z" fill="#FDC900"/>
</svg>
