<svg width="20" height="20" viewBox="0 0 20 20" fill="none" xmlns="http://www.w3.org/2000/svg">
<path d="M1.91059 8.17483C4.00537 12.7399 7.73279 16.3694 12.367 18.3371L13.1098 18.6682C14.8093 19.4259 16.8072 18.8503 17.8438 17.3043L18.8146 15.8565C19.1302 15.3858 19.0341 14.7518 18.5932 14.3959L15.301 11.7384C14.8174 11.3481 14.1064 11.439 13.7365 11.9384L12.718 13.3135C10.1047 12.0237 7.98293 9.90068 6.69381 7.28579L8.06809 6.26675C8.56725 5.8966 8.65812 5.18512 8.26801 4.70128L5.61197 1.40704C5.25634 0.965963 4.62289 0.869751 4.15247 1.18537L2.69556 2.16282C1.14082 3.20592 0.568727 5.22149 1.34343 6.92655L1.90974 8.17297L1.91059 8.17483Z" stroke="white" stroke-width="1.25" stroke-linejoin="round"/>
</svg>
