<svg width="30" height="37" viewBox="0 0 30 37" fill="none" xmlns="http://www.w3.org/2000/svg">
<path fill-rule="evenodd" clip-rule="evenodd" d="M6.62345 15.7505C6.62345 11.1809 10.3738 7.47644 15 7.47644C19.6262 7.47644 23.3766 11.1809 23.3766 15.7505C23.3766 20.3202 19.6262 24.0246 15 24.0246C10.3738 24.0246 6.62345 20.3202 6.62345 15.7505ZM15 10.0893C11.8347 10.0893 9.26867 12.6239 9.26867 15.7505C9.26867 18.8771 11.8347 21.4117 15 21.4117C18.1653 21.4117 20.7313 18.8771 20.7313 15.7505C20.7313 12.6239 18.1653 10.0893 15 10.0893Z" fill="#FDC900"/>
<path fill-rule="evenodd" clip-rule="evenodd" d="M0.0533414 13.7593C0.678192 6.27146 7.0129 0.508789 14.6191 0.508789H15.3809C22.9871 0.508789 29.3218 6.27146 29.9467 13.7593C30.2823 17.7816 29.0245 21.7756 26.438 24.9001L17.9855 35.1108C16.4425 36.9748 13.5575 36.9748 12.0145 35.1108L3.56197 24.9001C0.975542 21.7756 -0.282319 17.7816 0.0533414 13.7593ZM14.6191 3.12166C8.38956 3.12166 3.20139 7.84133 2.68963 13.9739C2.41027 17.3216 3.45715 20.6457 5.60977 23.2461L14.0623 33.4568C14.5469 34.0423 15.4531 34.0423 15.9377 33.4568L24.3902 23.2461C26.5429 20.6457 27.5897 17.3216 27.3104 13.9739C26.7986 7.84133 21.6104 3.12166 15.3809 3.12166H14.6191Z" fill="#FDC900"/>
</svg>
