<svg width="41" height="12" viewBox="0 0 41 12" fill="none" xmlns="http://www.w3.org/2000/svg">
<g clip-path="url(#clip0_0_2606)">
<path d="M33.6812 7.50879H5.31877C4.96901 7.50879 4.6336 7.35076 4.38628 7.06946C4.13896 6.78815 4 6.40661 4 6.00879C4 5.61096 4.13896 5.22942 4.38628 4.94812C4.6336 4.66682 4.96901 4.50879 5.31877 4.50879H33.6812C34.031 4.50879 34.3664 4.66682 34.6137 4.94812C34.8611 5.22942 35 5.61096 35 6.00879C35 6.40661 34.8611 6.78815 34.6137 7.06946C34.3664 7.35076 34.031 7.50879 33.6812 7.50879Z" fill="#FBC80C"/>
<path d="M7.64999 11.4388C7.33341 11.4374 7.0254 11.3359 6.77002 11.1488L0 6.14882L6.72 0.818829C7.03163 0.570851 7.42901 0.456803 7.82471 0.501812C8.22041 0.546821 8.58204 0.74719 8.83002 1.05882C9.07799 1.37045 9.19201 1.76782 9.147 2.16352C9.10199 2.55923 8.90163 2.92086 8.59 3.16883L4.94 6.05882L8.54001 8.70881C8.79537 8.8959 8.98498 9.15899 9.08173 9.4604C9.17847 9.76181 9.17738 10.0861 9.07861 10.3869C8.97984 10.6876 8.78847 10.9494 8.53186 11.1348C8.27525 11.3201 7.96655 11.4196 7.64999 11.4188V11.4388Z" fill="#FBC80C"/>
<path d="M29.4966 11.4388C29.2625 11.4401 29.0314 11.3854 28.8227 11.2792C28.6139 11.1731 28.4336 11.0187 28.2966 10.8288C28.1789 10.6706 28.0936 10.4908 28.0455 10.2996C27.9974 10.1084 27.9875 9.90959 28.0163 9.71455C28.0451 9.51951 28.112 9.33205 28.2133 9.16291C28.3146 8.99377 28.4483 8.84628 28.6066 8.72883L32.2166 6.07881L28.5666 3.18882C28.4123 3.06604 28.2837 2.91405 28.1881 2.74156C28.0926 2.56907 28.0319 2.37944 28.0096 2.18351C27.9873 1.98758 28.0038 1.7892 28.0582 1.59965C28.1126 1.4101 28.2038 1.23311 28.3266 1.07881C28.4494 0.924503 28.6014 0.795897 28.7739 0.700328C28.9464 0.604758 29.136 0.544116 29.3319 0.52183C29.5279 0.499544 29.7262 0.516055 29.9158 0.570445C30.1053 0.624835 30.2823 0.71603 30.4366 0.838816L37.1566 6.16883L30.3866 11.1688C30.1246 11.3478 29.8139 11.442 29.4966 11.4388Z" fill="#FBC80C"/>
</g>
<defs>
<clipPath id="clip0_0_2606">
<rect width="40.74" height="10.93" fill="white" transform="translate(0 0.508789)"/>
</clipPath>
</defs>
</svg>
