<svg width="26" height="39" viewBox="0 0 26 39" fill="none" xmlns="http://www.w3.org/2000/svg">
<g clip-path="url(#clip0_0_2611)">
<path d="M22.3751 38.2582H2.70317C1.98807 38.2582 1.3021 37.9749 0.795459 37.4702C0.288817 36.9656 0.00279336 36.2807 0 35.5656V3.20139C0.00279336 2.4863 0.288817 1.80147 0.795459 1.2968C1.3021 0.792142 1.98807 0.508784 2.70317 0.508789H22.3751C23.0893 0.508789 23.7741 0.792485 24.2791 1.29745C24.7841 1.80241 25.0677 2.48727 25.0677 3.20139V35.5656C25.0677 35.9192 24.9981 36.2694 24.8628 36.596C24.7275 36.9227 24.5291 37.2195 24.2791 37.4696C24.0291 37.7196 23.7322 37.9179 23.4055 38.0533C23.0788 38.1886 22.7287 38.2582 22.3751 38.2582ZM3.16779 35.0904H21.8999V3.67657H3.16779V35.0904Z" fill="#FBC80C"/>
<path d="M23.4838 18.7129H1.58386V21.8807H23.4838V18.7129Z" fill="#FBC80C"/>
<path d="M18.1725 12.6732H7.06412C6.64404 12.6732 6.24116 12.5063 5.94413 12.2093C5.64709 11.9122 5.48022 11.5093 5.48022 11.0893C5.48022 10.6692 5.64709 10.2663 5.94413 9.96931C6.24116 9.67227 6.64404 9.50537 7.06412 9.50537H18.1725C18.5925 9.50537 18.9954 9.67227 19.2925 9.96931C19.5895 10.2663 19.7564 10.6692 19.7564 11.0893C19.7564 11.5093 19.5895 11.9122 19.2925 12.2093C18.9954 12.5063 18.5925 12.6732 18.1725 12.6732Z" fill="#FBC80C"/>
<path d="M12.8295 17.4353C12.4914 17.4375 12.1616 17.3301 11.8898 17.129L3.98083 11.3109L11.8475 5.07035C12.1783 4.83175 12.5883 4.72992 12.9923 4.7861C13.3962 4.84227 13.763 5.05211 14.0161 5.3719C14.2692 5.6917 14.3892 6.09682 14.3511 6.50288C14.313 6.90894 14.1197 7.28463 13.8116 7.55175L9.19712 11.2158L13.7693 14.5842C14.0346 14.7832 14.2307 15.0603 14.3301 15.3766C14.4295 15.6929 14.4271 16.0324 14.3233 16.3473C14.2195 16.6621 14.0195 16.9365 13.7515 17.1317C13.4835 17.3269 13.1611 17.4331 12.8295 17.4353Z" fill="#FBC80C"/>
<path d="M17.6868 30.0115H6.58902C6.16895 30.0115 5.7661 29.8447 5.46906 29.5476C5.17202 29.2506 5.00513 28.8477 5.00513 28.4276C5.00513 28.0076 5.17202 27.6047 5.46906 27.3077C5.7661 27.0106 6.16895 26.8438 6.58902 26.8438H17.6868C18.1069 26.8438 18.5098 27.0106 18.8068 27.3077C19.1039 27.6047 19.2707 28.0076 19.2707 28.4276C19.2707 28.8477 19.1039 29.2506 18.8068 29.5476C18.5098 29.8447 18.1069 30.0115 17.6868 30.0115Z" fill="#FBC80C"/>
<path d="M11.9215 34.7736C11.5908 34.7693 11.2699 34.6615 11.0036 34.4655C10.7373 34.2695 10.5389 33.9951 10.4365 33.6807C10.334 33.3663 10.3325 33.0277 10.4322 32.7125C10.5319 32.3972 10.7277 32.121 10.9923 31.9226L15.5644 28.5542L10.9395 24.8901C10.7763 24.7606 10.6404 24.6002 10.5393 24.4181C10.4383 24.2359 10.3741 24.0357 10.3506 23.8287C10.3271 23.6218 10.3446 23.4122 10.4021 23.212C10.4597 23.0119 10.5562 22.825 10.686 22.6622C10.9492 22.3351 11.3309 22.125 11.748 22.0776C12.1651 22.0302 12.5841 22.1491 12.9141 22.4087L20.7807 28.6493L12.8612 34.4674C12.5894 34.6685 12.2596 34.7759 11.9215 34.7736Z" fill="#FBC80C"/>
</g>
<defs>
<clipPath id="clip0_0_2611">
<rect width="25.0677" height="37.76" fill="white" transform="translate(0 0.508789)"/>
</clipPath>
</defs>
</svg>
