<svg width="36" height="36" viewBox="0 0 36 36" fill="none" xmlns="http://www.w3.org/2000/svg">
<g clip-path="url(#clip0_0_2599)">
<path d="M17.63 35.7688C14.1444 35.7688 10.737 34.7356 7.83841 32.7997C4.93982 30.8638 2.68013 28.1121 1.34488 24.8924C0.00962603 21.6727 -0.341254 18.1294 0.336575 14.7104C1.0144 11.2913 2.69053 8.14989 5.15313 5.6831C7.61573 3.21631 10.7543 1.53487 14.1722 0.851224C17.5901 0.167582 21.1339 0.512417 24.3559 1.84219C27.5779 3.17196 30.3334 5.42697 32.2742 8.32226C34.215 11.2176 35.254 14.6232 35.26 18.1088C35.2626 22.7881 33.407 27.277 30.101 30.5886C26.795 33.9002 22.3093 35.7635 17.63 35.7688ZM17.63 3.50879C14.7352 3.50879 11.9054 4.3676 9.49887 5.9765C7.09233 7.58539 5.2172 9.87205 4.11078 12.5471C3.00435 15.2221 2.71638 18.1653 3.28332 21.004C3.85026 23.8428 5.24661 26.4495 7.29565 28.4944C9.3447 30.5392 11.9543 31.9302 14.7942 32.4913C17.6342 33.0524 20.5767 32.7584 23.2494 31.6465C25.9222 30.5346 28.205 28.6548 29.809 26.2449C31.4129 23.8351 32.2659 21.0036 32.26 18.1088C32.2468 14.2355 30.7002 10.5251 27.9586 7.78903C25.2169 5.053 21.5033 3.51405 17.63 3.50879Z" fill="#FBC80C"/>
<path d="M26.86 21.8289H15.13V8.10889C15.13 7.71106 15.2881 7.32952 15.5694 7.04822C15.8507 6.76691 16.2322 6.60889 16.63 6.60889C17.0278 6.60889 17.4094 6.76691 17.6907 7.04822C17.972 7.32952 18.13 7.71106 18.13 8.10889V18.8789H26.86C27.2578 18.8789 27.6394 19.0369 27.9207 19.3182C28.202 19.5995 28.36 19.9811 28.36 20.3789C28.36 20.7767 28.202 21.1582 27.9207 21.4395C27.6394 21.7208 27.2578 21.8789 26.86 21.8789V21.8289Z" fill="#FBC80C"/>
</g>
<defs>
<clipPath id="clip0_0_2599">
<rect width="35.26" height="35.26" fill="white" transform="translate(0 0.508789)"/>
</clipPath>
</defs>
</svg>
